<?xml version="1.0" encoding="utf-8"?>
<!-- Generator: Adobe Illustrator 27.3.1, SVG Export Plug-In . SVG Version: 6.00 Build 0)  -->
<svg version="1.1" id="Layer_1" xmlns="http://www.w3.org/2000/svg" xmlns:xlink="http://www.w3.org/1999/xlink" x="0px" y="0px"
	 viewBox="0 0 100 100" style="enable-background:new 0 0 100 100;" xml:space="preserve">
<style type="text/css">
	.st0{fill:#292D32;}
</style>
<path class="st0" d="M49.6,92.8C26,92.8,6.9,73.7,6.9,50.1S26,7.4,49.6,7.4s42.7,19.2,42.7,42.7S73.1,92.8,49.6,92.8z M49.6,13.7
	c-20.1,0-36.5,16.4-36.5,36.5s16.3,36.5,36.5,36.5S86,70.2,86,50.1S69.7,13.7,49.6,13.7z"/>
<path class="st0" d="M93.3,97c-0.8,0-1.6-0.3-2.2-0.9l-8.3-8.3c-1.2-1.2-1.2-3.2,0-4.4c1.2-1.2,3.2-1.2,4.4,0l8.3,8.3
	c1.2,1.2,1.2,3.2,0,4.4C94.9,96.7,94.1,97,93.3,97z"/>
</svg>
